<svg width="26" height="27" viewBox="0 0 26 27" fill="none" xmlns="http://www.w3.org/2000/svg">
<path d="M25.7781 18.5407C25.7781 20.2504 24.473 22.0988 23.0161 23.9331C23.0161 23.9331 20.6686 20.908 20.5272 18.6722C20.3857 16.4363 22.8846 14.0689 22.8846 14.0689V13.1482C21.8526 11.1682 20.3857 9.86016 18.6858 8.67645H17.6337C16.2187 9.84696 15.5392 11.0439 13.4249 11.0439C11.3106 11.0439 10.1269 9.72862 10.2584 8.28189C10.39 6.83515 11.3106 5.91449 13.2835 5.91449C15.2563 5.91449 16.2535 7.03091 17.6337 8.28189H18.6858C19.9911 6.57209 22.0955 5.78297 23.5522 5.91448C25.0089 6.046 25.9196 6.83516 25.9196 8.15036C25.9196 9.46557 25.1894 11.5482 23.5522 13.1482V14.0689C24.8399 15.6585 25.7781 16.8309 25.7781 18.5407Z" fill="#EAB737"/>
<path d="M18.4269 0.794643C20.1367 0.794643 21.985 2.09976 23.8193 3.55662C23.8193 3.55662 20.7943 5.90413 18.5584 6.0456C16.3225 6.18707 13.9551 3.68814 13.9551 3.68814H13.0345C11.0544 4.7201 9.74639 6.18707 8.56269 7.88692V8.9391C9.73319 10.354 10.9301 11.0335 10.9301 13.1478C10.9301 15.2621 9.61485 16.4458 8.16812 16.3143C6.72139 16.1828 5.80072 15.2621 5.80072 13.2893C5.80072 11.3164 6.91714 10.3193 8.16812 8.9391V7.88692C6.45832 6.58164 5.6692 4.47728 5.80071 3.02058C5.93223 1.56389 6.72139 0.653176 8.03659 0.653176C9.3518 0.653176 11.4344 1.38336 13.0345 3.02058H13.9551C15.5447 1.73286 16.7171 0.794643 18.4269 0.794643Z" fill="#EAB737"/>
<path d="M0.141323 8.41296C0.141323 6.70317 1.44644 4.85483 2.9033 3.02054C2.9033 3.02054 5.25081 6.04557 5.39228 8.28145C5.53375 10.5173 3.03482 12.8847 3.03482 12.8847L3.03482 13.8054C4.06678 15.7854 5.53375 17.0935 7.2336 18.2772H8.28578C9.70072 17.1067 10.3802 15.9097 12.4945 15.9097C14.6088 15.9097 15.7925 17.225 15.661 18.6717C15.5295 20.1185 14.6088 21.0391 12.636 21.0391C10.6631 21.0391 9.66598 19.9227 8.28578 18.6717H7.2336C5.92832 20.3815 3.82396 21.1706 2.36726 21.0391C0.910567 20.9076 -0.000144005 20.1185 -0.000144005 18.8032C-0.000144005 17.488 0.73004 15.4054 2.36726 13.8054L2.36726 12.8847C1.07954 11.2951 0.141323 10.1228 0.141323 8.41296Z" fill="#EAB737"/>
<path d="M7.75964 25.9153C6.04985 25.9153 4.20151 24.6102 2.36722 23.1533C2.36722 23.1533 5.39225 20.8058 7.62813 20.6644C9.864 20.5229 12.2314 23.0218 12.2314 23.0218H13.1521C15.1321 21.9899 16.4401 20.5229 17.6238 18.823V17.7709C16.4533 16.3559 15.2564 15.6764 15.2564 13.5621C15.2564 11.4478 16.5717 10.2641 18.0184 10.3957C19.4651 10.5272 20.3858 11.4478 20.3858 13.4207C20.3858 15.3935 19.2694 16.3907 18.0184 17.7709V18.823C19.7282 20.1283 20.5173 22.2327 20.3858 23.6894C20.2543 25.1461 19.4651 26.0568 18.1499 26.0568C16.8347 26.0568 14.7521 25.3266 13.1521 23.6894H12.2314C10.6418 24.9771 9.46944 25.9153 7.75964 25.9153Z" fill="#EAB737"/>
</svg>
