<svg id="Layer_1" data-name="Layer 1" xmlns="http://www.w3.org/2000/svg" viewBox="0 0 192 187.9"><defs><style>.cls-1{fill:#eab737;}</style></defs><path class="cls-1" d="M43.4,128v6.9a9.7,9.7,0,0,0,9.6,9.7h86a9.7,9.7,0,0,0,9.6-9.7h0V128H192v42.1a17.8,17.8,0,0,1-17.8,17.8H17.8A17.8,17.8,0,0,1,0,170.1H0V128Zm0-55.7v43.3H0V72.3Zm148.6,0v43.3H148.6V72.3ZM174.2,0A17.8,17.8,0,0,1,192,17.8h0V59.9H148.6V53a9.6,9.6,0,0,0-9.6-9.6H53A9.6,9.6,0,0,0,43.4,53h0v6.9H0V17.8A17.8,17.8,0,0,1,17.8,0H174.2Z" transform="translate(0 0)"/></svg>