<svg id="Layer_1" data-name="Layer 1" xmlns="http://www.w3.org/2000/svg" viewBox="0 0 198 79.8"><defs><style>.cls-1{fill:#eab737;}</style></defs><path class="cls-1" d="M198,41.9V23.8C198,8.4,182.6.1,170.1.1a41.6,41.6,0,0,0-23.8,9.7A31.2,31.2,0,0,0,124,.1a36.7,36.7,0,0,0-23.7,9.7A23.9,23.9,0,0,0,81.1,0H77.7a21.6,21.6,0,0,0-19,11.3L40.3,53.1,19.8,6.3A10.3,10.3,0,0,0,10.3.1a9.2,9.2,0,0,0-4,.8h0A10.4,10.4,0,0,0,0,10.4a9.1,9.1,0,0,0,1,4.3L26.3,69.9s4.2,9.7,12.6,9.7l1.7.2a11.7,11.7,0,0,0,10.8-7.1c2-2.9,16.6-33.8,25.4-52.4A3.6,3.6,0,0,1,80,18.2a3.5,3.5,0,0,1,3.5,3.6h0V68.1h0A11.4,11.4,0,0,0,94,79.6h.7a11.2,11.2,0,0,0,11.2-11.1V30.1a11.9,11.9,0,1,1,23.7,0V68.5a11.2,11.2,0,0,0,22.3,0V30.1a11.9,11.9,0,1,1,23.8,0V68.5a11.2,11.2,0,0,0,22.3,0V41.9Z" transform="translate(0 0)"/></svg>